<?xml version="1.0" standalone="no"?>
<!DOCTYPE svg PUBLIC "-//W3C//DTD SVG 20010904//EN"
 "http://www.w3.org/TR/2001/REC-SVG-20010904/DTD/svg10.dtd">
<svg version="1.0" xmlns="http://www.w3.org/2000/svg"
 width="980.000000pt" height="980.000000pt" viewBox="0 0 980.000000 980.000000"
 preserveAspectRatio="xMidYMid meet">

<g transform="translate(0.000000,980.000000) scale(0.100000,-0.100000)"
fill="#000000" stroke="none">
<path d="M948 9793 c-164 -2 -288 -7 -288 -12 0 -10 463 -303 1045 -661 182
-112 336 -209 343 -215 10 -9 -7 -26 -83 -84 -159 -119 -300 -245 -511 -456
-220 -219 -308 -317 -442 -494 -467 -612 -793 -1346 -927 -2083 -13 -76 -36
-240 -50 -365 -13 -126 -27 -247 -30 -271 l-6 -43 708 3 c820 3 783 -1 783 85
0 180 93 573 211 893 220 594 671 1165 1257 1590 40 29 74 51 76 49 1 -2 104
-258 229 -569 205 -514 397 -973 411 -988 3 -3 8 -3 9 -1 8 9 1007 3605 1007
3623 0 6 -3121 5 -3742 -1z"/>
<path d="M7908 7742 l-527 -527 71 -74 c419 -444 752 -1146 834 -1756 9 -66
21 -154 28 -195 l11 -75 739 -3 738 -2 -6 24 c-3 13 -13 102 -21 198 -62 684
-258 1326 -585 1915 -203 365 -415 659 -665 926 l-91 96 -526 -527z"/>
<path d="M4 4666 c3 -13 13 -100 21 -192 36 -403 95 -697 216 -1070 194 -603
476 -1121 868 -1594 113 -137 442 -473 596 -609 484 -429 1042 -747 1665 -949
378 -123 714 -192 1104 -227 92 -8 179 -18 192 -21 l24 -6 0 744 0 745 -92 7
c-241 18 -615 103 -863 196 -332 126 -644 301 -935 526 -150 115 -480 446
-594 594 -409 531 -667 1179 -711 1788 l-7 92 -745 0 -745 0 6 -24z"/>
<path d="M8306 4593 c-14 -188 -88 -538 -156 -743 -333 -991 -1073 -1767
-2045 -2143 -278 -108 -642 -194 -897 -213 l-98 -7 0 -744 0 -745 23 6 c12 3
97 12 187 21 357 33 641 86 947 174 1321 384 2421 1311 3032 2556 264 538 419
1099 476 1720 8 94 18 180 21 193 l6 22 -744 0 -745 0 -7 -97z"/>
</g>
</svg>
